<svg width="50" height="50" viewBox="0 0 50 50" fill="none" xmlns="http://www.w3.org/2000/svg">
<path d="M25 0C11.215 0 0 11.215 0 25C0 38.785 11.215 50 25 50C38.785 50 50 38.785 50 25C50 11.215 38.785 0 25 0ZM25 45.4545C13.7212 45.4545 4.54545 36.2786 4.54545 25C4.54545 13.7214 13.7212 4.54545 25 4.54545C36.2788 4.54545 45.4545 13.7214 45.4545 25C45.4545 36.2786 36.2786 45.4545 25 45.4545Z" fill="white"/>
<path d="M34.3746 16.1612L21.5179 29.0177L15.6255 23.1251C14.738 22.2377 13.2989 22.2376 12.4114 23.125C11.5238 24.0126 11.5238 25.4515 12.4114 26.3391L19.9108 33.8388C20.337 34.265 20.915 34.5045 21.5177 34.5045C21.5179 34.5045 21.5177 34.5045 21.5179 34.5045C22.1206 34.5045 22.6986 34.265 23.1249 33.8389L37.5887 19.3754C38.4762 18.4879 38.4762 17.0489 37.5887 16.1614C36.7011 15.2738 35.2621 15.2736 34.3746 16.1612Z" fill="white"/>
</svg>
